<?xml version="1.0" encoding="utf-8"?>
<!-- Generator: Adobe Illustrator 16.0.0, SVG Export Plug-In . SVG Version: 6.00 Build 0)  -->
<!DOCTYPE svg PUBLIC "-//W3C//DTD SVG 1.1//EN" "http://www.w3.org/Graphics/SVG/1.1/DTD/svg11.dtd">
<svg version="1.1" xmlns="http://www.w3.org/2000/svg" xmlns:xlink="http://www.w3.org/1999/xlink" x="0px" y="0px" width="500px"
	 height="500px" viewBox="0 0 500 500" enable-background="new 0 0 500 500" xml:space="preserve">
<g id="BACKGROUND">
	<g>
		<path fill="#FAEEE8" d="M235.864,412.277c0,0-179.209-21.93-179.635-205.327C55.845,41.912,208.903,35.921,265.906,87.355
			c57.002,51.434,177.17-18.062,193.346,114.878C475.428,335.172,364.504,429.531,235.864,412.277z"/>
		<ellipse fill="#FAEEE8" cx="225.686" cy="459.504" rx="182.017" ry="17.377"/>
	</g>
</g>
<g id="OBJECTS">
	<g>
		<g>
			<g>
				<g>
					<g>
						<path fill="#FFB199" d="M189.741,294.815c0,0-22.039,39.214-49.325,62.433c-26.61,22.644-65.696,60.009-70.05,80.031
							c-0.111,0.509-0.199,1.007-0.264,1.493c-2.624,19.606-3.148-27.863-3.148-27.863s12.594-17.027,18.891-29.41
							c6.297-12.384,12.594-26.314,29.385-36.118c0,0,23.613-45.406,46.701-60.885"/>
						<path fill="#FF8255" d="M154.348,343.685c20.479-22.338,35.393-48.87,35.393-48.87l-27.811-10.319
							c-9.943,6.666-19.976,18.88-28.186,30.63C139.181,325.625,146.273,335.038,154.348,343.685z"/>
					</g>
					<g>
						<g>
							<path fill="#22689E" d="M69.904,410.352c0,0-0.65-4.325-3.885-3.499s-13.782,2.241-15.067,7.835
								c-1.286,5.595,11.951,30.566,19.119,40.631s9.72,3.557,10.017,1.854s-3.247-18.775-0.146-25.025
								c3.101-6.249,3.101-6.249,3.101-6.249l-7.647-4.762l-3.249,2.997L69.904,410.352z"/>
							<path fill="#FFFFFF" d="M72.445,452.994c-7.08-9.94-19.876-33.938-19.84-41.094c-0.814,0.792-1.407,1.712-1.654,2.788
								c-1.286,5.595,11.951,30.566,19.119,40.631c5.682,7.977,8.461,5.544,9.518,3.344
								C77.971,458.791,75.657,457.502,72.445,452.994z"/>
						</g>
						<g>
							
								<path fill="none" stroke="#FFFFFF" stroke-width="1.6808" stroke-linecap="round" stroke-linejoin="round" stroke-miterlimit="10" d="
								M71.487,427.676c0,0,6.345,1.471,8.454,4.471"/>
							
								<path fill="none" stroke="#FFFFFF" stroke-width="1.6808" stroke-linecap="round" stroke-linejoin="round" stroke-miterlimit="10" d="
								M70.664,435.352c0,0,6.345,1.471,8.454,4.471"/>
							
								<path fill="none" stroke="#FFFFFF" stroke-width="1.6808" stroke-linecap="round" stroke-linejoin="round" stroke-miterlimit="10" d="
								M71.22,431.413c0,0,6.345,1.471,8.454,4.471"/>
						</g>
					</g>
				</g>
				<path fill="#000C1E" d="M165.798,259.349c0,0-22.126,26.669-30.678,46.239c0,0,9.052,21.626,30.678,28.667
					c0,0,24.141-27.158,29.169-43.251C199.997,274.911,165.798,259.349,165.798,259.349z"/>
			</g>
			<g>
				<g>
					<g>
						<path fill="#FFB199" d="M167.537,259.349c0,0-25.146,20.62-10.058,42.748c15.087,22.129,68.397,29.673,68.397,29.673
							s-13.579,1.509-23.637,29.169c-10.059,27.661-18.608,39.228-18.608,39.228l13.579,3.018c0,0,18.608-30.678,33.696-44.257
							s34.198-27.157,22.632-40.233C241.969,305.618,167.537,259.349,167.537,259.349z"/>
						<path fill="#FF8255" d="M208.226,312.018c4.176-6.233,8.22-14.144,7.256-21.735c-23.18-15.539-47.945-30.934-47.945-30.934
							s-25.146,20.62-10.059,42.748c7.557,11.084,24.704,18.509,39.937,23.159C201.363,321.123,205.057,316.749,208.226,312.018z"/>
					</g>
					<g>
						<g>
							<path fill="#22689E" d="M188.744,388.905c0,0-3.413-2.734-5.228,0.068c-1.815,2.803-8.599,11-5.747,15.981
								c2.853,4.98,29.523,14.334,41.619,16.858c12.096,2.525,9.552-3.985,8.614-5.438s-15.129-11.584-17.094-18.278
								c-1.965-6.693-1.965-6.693-1.965-6.693l-8.848,1.693l-0.352,4.407L188.744,388.905z"/>
							<path fill="#FFFFFF" d="M219.554,418.494c-11.946-2.494-37.632-11.43-42.462-16.71c-0.061,1.135,0.129,2.212,0.678,3.171
								c2.853,4.98,29.523,14.333,41.619,16.858c9.586,2.001,9.977-1.672,9.259-4.005C227.547,419,224.974,419.625,219.554,418.494z
								"/>
						</g>
						<g>
							
								<path fill="none" stroke="#FFFFFF" stroke-width="1.6808" stroke-linecap="round" stroke-linejoin="round" stroke-miterlimit="10" d="
								M201.666,400.553c0,0,5.657-3.228,9.243-2.456"/>
							
								<path fill="none" stroke="#FFFFFF" stroke-width="1.6808" stroke-linecap="round" stroke-linejoin="round" stroke-miterlimit="10" d="
								M206.272,406.749c0,0,5.657-3.228,9.243-2.456"/>
							
								<path fill="none" stroke="#FFFFFF" stroke-width="1.6808" stroke-linecap="round" stroke-linejoin="round" stroke-miterlimit="10" d="
								M204.006,403.477c0,0,5.657-3.227,9.242-2.455"/>
						</g>
					</g>
				</g>
				<g>
					<path fill="#001433" d="M164.187,256.644c0,0-21.293,18.296-17.773,31.874c3.521,13.579,16.597,29.17,41.743,37.217
						c0,0,14.824-6.717,27.157-36.462l-12.07-8.298l7.287-10.059L164.187,256.644z"/>
					<g>
						<defs>
							<path id="SVGID_1_" d="M164.187,256.644c0,0-21.293,18.296-17.773,31.874c3.521,13.579,16.597,29.17,41.743,37.217
								c0,0,14.824-6.717,27.157-36.462l-12.07-8.298l7.287-10.059L164.187,256.644z"/>
						</defs>
						<clipPath id="SVGID_2_">
							<use xlink:href="#SVGID_1_"  overflow="visible"/>
						</clipPath>
						
							<path clip-path="url(#SVGID_2_)" fill="none" stroke="#FFFFFF" stroke-width="1.6808" stroke-linecap="round" stroke-linejoin="round" stroke-miterlimit="10" d="
							M175.946,259.349c0,0-18.105,15.088-8.046,29.169c10.058,14.082,42.365,28.132,42.365,28.132l3.354-4.632
							c0,0-42.701-20.984-42.701-29.534s15.143-25.84,15.143-25.84"/>
					</g>
				</g>
			</g>
		</g>
		<g>
			<g>
				<path fill="#FFB199" d="M200.499,180.706c0,0,3.175-19.568,2.271-28.202c-0.216-2.061-4.242-4.555-4.425-6.834
					c-0.583-7.271,2.857-14.307,2.857-14.307s20.809-7.084,33.648,1.992l1.364,11.732l-1.364,2.89c0,0,4.649,8.178,5.092,10.171
					l-3.728,2.31v2.561l-1.807,1.106c0,0,2.03,0.89,1.552,1.829c-0.479,0.938-1.552,1.713-1.552,1.713s2.131,2.509,0.36,5.166
					s-25.486-0.627-24.932-14.02c0.633-15.319,14.368,2.929,14.368,2.929l-3.076,19.971c0,0,24.784,7-6.134,15.113
					C200.49,200.632,200.499,180.706,200.499,180.706z"/>
				<g>
					<path fill="#FF8255" d="M211.486,173.65c2.703,2.767,6.163,5.066,9.898,6.4l1.205-7.821
						c-6.433-2.017-12.941-6.234-12.751-13.259C207.971,163.859,207.55,169.62,211.486,173.65z"/>
				</g>
			</g>
			<path fill="#001433" d="M203.206,163.337c0,0-21.632-28.954-5.105-38.219c0,0,0-10.543,8.873-11.342
				c7.002-0.63,26.802,10.389,29.199,1.28c0,0,2.556,4.311,0,7.346c-2.556,3.035-1.35,0.32-1.35,0.32s5.663-5.596,4.385-10.066
				c0,0,10.625,10.996-0.718,20.581c-11.342,9.584-27.633,0.348-27.633,0.348l6.917-1.668l-1.384,9.63l-4.28,2.46l-0.765,8.268
				l-2.453,0.16c0,0-0.479-12.78-4.792-11.342c-4.313,1.438-4.473,11.821,2.715,13.738L203.206,163.337z"/>
		</g>
		<g>
			<g>
				<path fill="#FFB199" d="M298.444,158.209c-0.018,0.022-0.036,0.045-0.055,0.068c1.949-23.071-2.384-1.445-2.384-1.445
					c-0.349-25.357-3.24-0.11-3.24-0.11c-1.388-21.772-2.603-1.04-4.826,7.102c-0.171-0.069,0,0,0,0
					c-6.848-18.658-2.37,6.201-2.37,6.201c-1.541,4.521-11.693,32.047-11.693,32.047c-9.064-3.077-32.204-8.78-32.204-8.78
					c-15.506-17.136-43.361-4.373-25.205,13.674c11.714,11.644,62.542,19.743,69.125,16.939
					c6.584-2.804,15.414-56.394,15.195-65.224C301.049,143.97,298.946,156.178,298.444,158.209z"/>
				<path fill="#FF8255" d="M251.944,201.177c-0.208-1.837-0.473-3.664-0.78-5.482c-5.406-1.395-9.492-2.402-9.492-2.402
					c-3.395-3.751-7.38-6.069-11.346-7.213c-0.082,9.383-0.347,18.755-1.025,28.091c6.408,2.477,14.139,4.618,21.827,6.293
					C252.411,214.083,252.685,207.742,251.944,201.177z"/>
			</g>
			<g>
				<g>
					<path fill="#22689E" d="M201.735,174.355c0,0-21.625-3.073-26.152,3.241c-4.526,6.314-4.021,51.167-13.076,77.226
						c0,0,16.597,20.117,46.772,22.632c0,0,35.707-72.886,28.164-88.244l-12.77-6.503
						C224.673,182.707,223.374,198.884,201.735,174.355z"/>
					<path fill="#194E72" d="M192.418,227.194c-6.978-16.727-7.993-35.168-8.137-53.228c-3.834,0.486-7.202,1.543-8.698,3.63
						c-4.526,6.314-4.021,51.167-13.076,77.226c0,0,16.596,20.117,46.771,22.632c0,0,2.811-5.738,6.688-14.333
						C205.976,252.804,197.897,240.326,192.418,227.194z"/>
				</g>
				<path fill="#FFB199" d="M113.502,234.774c0.017-0.023,0.033-0.047,0.05-0.071c-0.615,23.146,2.464,1.305,2.464,1.305
					c1.811,25.295,3.241-0.077,3.241-0.077c2.642,21.656,2.659,0.888,4.409-7.369c0.174,0.059,0,0,0,0
					c7.913,18.232,2.008-6.328,2.008-6.328c1.278-4.603,9.825-32.668,9.825-32.668c9.227,2.548,32.657,6.908,32.657,6.908
					c16.469,16.213,36.716-3.007,22.515-18.877c-11.014-12.308-61.718-12.331-68.128-9.152s-12.134,57.189-11.406,65.992
					C111.723,249.14,113.118,236.831,113.502,234.774z"/>
			</g>
		</g>
	</g>
	<g>
		<g>
			<g>
				<g>
					<path fill="#BA1F00" d="M392.868,187.683c0,0-3.676-1.974-6.215,0.794s-5.128,10.23-5.128,10.23l-17.262-15.646
						c0,0,6.521-3.171,6.329-10.792c-0.191-7.621-1.247-13.639-1.247-13.639l14.002-2.527L392.868,187.683z"/>
					<path fill="#9B1600" d="M383.853,157.782c-2.339,1.195-3.519,5.598-4.454,8.233c-1.45,4.084-2.791,8.064-2.544,12.645
						c0.343,6.341,2.574,12.047,6.309,15.912c0.961-2.198,2.231-4.722,3.489-6.094c2.539-2.768,6.215-0.794,6.215-0.794
						L383.853,157.782z"/>
				</g>
				<g>
					<path fill="#001433" d="M391.279,137.722c0,0,12.077-5.064,19.612,3.646c7.534,8.711,4.901,21.07-11.307,22.893
						C383.377,166.085,391.279,137.722,391.279,137.722z"/>
					<path fill="#BA1F00" d="M386.941,167.017c0,0-4.333,8.425-2.889,11.915c1.444,3.49,16.488,16.006,19.016,12.155
						c2.527-3.852,1.203-7.341,1.203-7.341s2.407-0.121,1.204-2.046l1.564-0.361c0,0-0.241-1.324,0-3.129
						c0,0,3.249-0.481,3.852-1.564c0,0-3.37-7.221-2.167-10.711c1.204-3.49,3.731-11.554-4.573-20.219
						C395.847,137.049,376.591,147.039,386.941,167.017z"/>
				</g>
			</g>
			<g>
				<g>
					<path fill="#003154" d="M365.752,152.309c0,0-8.104-12.542-27.755-2.006c-19.651,10.535-39.506,7.477-36.264-4.274
						c0,0-12.561,18.317,6.888,22.69c21.644,4.866,37.262-25.317,57.131-15.194"/>
					<ellipse fill="#FFA94D" cx="364.739" cy="151.26" rx="3.849" ry="4.016"/>
				</g>
				<g>
					<g>
						<path fill="#003154" d="M385.622,163.647c0,0-1.596,6.992,0,7.098c1.595,0.105,5.349-0.642,4.239-12.963
							c0,0,17.827-8.114,10.939-17.628c-6.888-9.515-31.878-4.66-36.537,9.319c0,0-0.537,7.496,1.691,12.966
							c2.229,5.47,5.611,9.722,4.331,12.894l12.176-4.993L385.622,163.647z"/>
						<path fill="#001433" d="M375.95,158.729c-2.638-4.15-3.902-8.965-2.865-13.848c0.504-2.371,1.362-4.604,2.417-6.748
							c-5.193,2.42-9.551,6.278-11.238,11.34c0,0-0.537,7.496,1.691,12.966c2.229,5.47,5.611,9.722,4.331,12.894l12.176-4.993
							l1.862-3.944C380.992,164.489,378.047,162.03,375.95,158.729z"/>
					</g>
					<path fill="#BA1F00" d="M385.622,172.665c0,0,2.111-13.539-3.859-11.239C375.791,163.725,382.461,179.253,385.622,172.665z"/>
				</g>
			</g>
		</g>
		<g>
			<g>
				<path fill="#BA1F00" d="M269.289,217.298c0.026-0.007,0.052-0.015,0.078-0.022c-13.922,16.567,1.042,2.388,1.042,2.388
					c-13.399,19.551,2.415,1.831,2.415,1.831c-10.674,17.374,1.428,2.197,7.513-2.822c0.094,0.145,0,0,0,0
					c-4.826,17.938,5.152-3.458,5.152-3.458c3.613-2.622,28.579-19.33,28.579-19.33c12.979,0.044,37.732,5.928,37.732,5.928
					c2.605,21.442,23.982,14.237,19.844-9.329c-2.67-15.205-50.309-16.875-58.54-16.835c-6.688,0.032-40.757,33.166-45.35,40.027
					C259.625,226.768,267.81,218.58,269.289,217.298z"/>
				<path fill="#9B1600" d="M371.644,192.483c-1.486-8.463-16.903-12.732-31.703-14.848c-2.207,3.573-3.78,7.537-4.7,11.636
					c-0.7,3.117-0.801,6.136-0.306,9.065c9.106,1.631,16.865,3.475,16.865,3.475C354.406,223.254,375.783,216.049,371.644,192.483z"
					/>
			</g>
			<g>
				<path fill="#FFFFFF" d="M325.575,248.008c0,0,8.939,18.656,27.207,22.931c0,0,33.036-26.429,32.647-48.583
					c-0.389-22.154,1.989-17.719,1.989-17.719s-7.042-20.759-23.755-22.313c0,0-10.494,2.33-19.433,21.375
					C335.292,222.742,341.122,239.068,325.575,248.008z"/>
				<path fill="#BA1F00" d="M444.84,202.897c-0.024,0.012-0.049,0.024-0.073,0.037c10.619-18.811-1.461-2.152-1.461-2.152
					c9.559-21.642-2.705-1.353-2.705-1.353c7.284-19.005-1.804-1.894-6.854,4.148c-0.117-0.125,0,0,0,0
					c1.443-18.486-4.42,4.338-4.42,4.338c-3.064,3.236-22.371,22.637-22.371,22.637c-6.492-6.132-19.829-22.737-19.829-22.737
					c-6.492-20.56-35.077-20.559-26.691,1.804c5.41,14.428,41.3,43.825,47.973,44.005c6.673,0.181,34.988-41.841,38.234-49.416
					C452.583,191.833,446.055,201.369,444.84,202.897z"/>
			</g>
		</g>
		<g>
			<g>
				<g>
					<path fill="#BA1F00" d="M334.885,360.396c0,0-2.481,3.722-8.546,6.34c-6.064,2.619,1.24,9.648,1.24,9.648l14.344,4.549
						l1.244-3.859c0,0-2.324-5.1,3.174-11.854C351.838,358.466,334.885,360.396,334.885,360.396z"/>
					<path fill="#000C1E" d="M395.664,305.53c-10.882-12.955-61.668-48.194-97.943-35.238c0,0,0,36.275,30.575,38.866
						c17.906,1.518,30.12,3.747,39.148,6.479c-4.304,2.744-9.386,7.063-13.756,13.732c-9.846,15.028-20.729,32.129-20.729,32.129
						l11.4,7.773c0,0,34.604-35.485,50.666-47.01l-0.004-0.002C399.876,319.448,402.034,313.114,395.664,305.53z"/>
				</g>
				<g>
					<g>
						<path fill="#FFA94D" d="M329.371,366.012c0,0-2.243-3.366-4.628-1.402c-2.384,1.963-10.658,7.293-9.536,12.481
							c1.122,5.189,22.019,20.897,31.976,26.507c9.958,5.609,9.537-0.842,9.116-2.385c-0.421-1.542-10.098-14.445-9.957-20.896
							c0.14-6.451,0.14-6.451,0.14-6.451l-8.274-0.981l-1.543,3.786L329.371,366.012z"/>
						<path fill="#FFFFFF" d="M348.257,400.717c-9.835-5.54-29.98-20.604-32.762-26.611c-0.371,0.984-0.505,1.987-0.289,2.985
							c1.122,5.189,22.019,20.896,31.976,26.507c7.893,4.446,9.264,1.317,9.284-0.941
							C355.163,403.401,352.719,403.231,348.257,400.717z"/>
					</g>
					<g>
						
							<path fill="none" stroke="#FFFFFF" stroke-width="1.5547" stroke-linecap="round" stroke-linejoin="round" stroke-miterlimit="10" d="
							M337.505,379.897c0,0,5.891-1.263,8.836,0.42"/>
						
							<path fill="none" stroke="#FFFFFF" stroke-width="1.5547" stroke-linecap="round" stroke-linejoin="round" stroke-miterlimit="10" d="
							M339.833,386.647c0,0,5.891-1.263,8.836,0.421"/>
						
							<path fill="none" stroke="#FFFFFF" stroke-width="1.5547" stroke-linecap="round" stroke-linejoin="round" stroke-miterlimit="10" d="
							M338.75,383.129c0,0,5.89-1.262,8.835,0.421"/>
					</g>
				</g>
			</g>
			<g>
				<g>
					<path fill="#BA1F00" d="M223.346,414.313c0,0-3.001,3.316-9.384,5.016c-6.384,1.699-0.191,9.726-0.191,9.726l13.52,6.606
						l1.798-3.635c0,0-1.55-5.386,4.88-11.258C240.398,414.895,223.346,414.313,223.346,414.313z"/>
					<path fill="#001433" d="M330.239,248.008c0,0-55.968,4.275-46.511,57.522c0,0-16.064,32.648-20.729,46.122
						c0,0-21.247,8.81-31.093,37.312s-11.919,24.875-11.919,24.875s4.664,9.846,12.956,8.291c0,0,24.356-37.83,47.158-55.449
						c0,0,48.713-49.231,54.931-100.535L318.449,262l-5.7,43.53c0,0,24.875-7.255,38.349-34.721L330.239,248.008z"/>
				</g>
				<g>
					<g>
						<path fill="#FFA94D" d="M217.066,419.057c0,0-1.725-3.659-4.372-2.067c-2.647,1.592-11.615,5.647-11.268,10.945
							c0.348,5.298,18.709,23.905,27.734,30.918c9.025,7.012,9.557,0.568,9.367-1.019c-0.189-1.588-7.865-15.772-6.779-22.134
							c1.087-6.36,1.087-6.36,1.087-6.36l-8.041-2.188l-2.083,3.52L217.066,419.057z"/>
						<path fill="#FFFFFF" d="M230.648,456.162c-8.914-6.926-26.627-24.786-28.496-31.137c-0.511,0.919-0.792,1.892-0.725,2.91
							c0.348,5.298,18.709,23.905,27.734,30.918c7.153,5.558,8.969,2.664,9.321,0.434
							C237.084,459.83,234.692,459.303,230.648,456.162z"/>
					</g>
					<g>
						
							<path fill="none" stroke="#FFFFFF" stroke-width="1.5547" stroke-linecap="round" stroke-linejoin="round" stroke-miterlimit="10" d="
							M223.072,433.987c0,0,6.012-0.384,8.678,1.714"/>
						
							<path fill="none" stroke="#FFFFFF" stroke-width="1.5547" stroke-linecap="round" stroke-linejoin="round" stroke-miterlimit="10" d="
							M224.383,441.005c0,0,6.012-0.383,8.678,1.715"/>
						
							<path fill="none" stroke="#FFFFFF" stroke-width="1.5547" stroke-linecap="round" stroke-linejoin="round" stroke-miterlimit="10" d="
							M223.829,437.368c0,0,6.012-0.384,8.678,1.714"/>
					</g>
				</g>
			</g>
		</g>
	</g>
	<g>
		<polygon fill="#FFA94D" points="89.175,46.192 94.212,101.326 410.825,97.338 410.825,49.66 		"/>
		<rect x="95.771" y="27.549" fill="none" width="296.458" height="69.79"/>
		<text transform="matrix(1 0 0 1 152.7681 90.5015)" fill="#FFFFFF" font-family="'Raleway-Black'" font-size="47.6784">EXERACK</text>
	</g>
</g>
</svg>
